# Blender 4.2.1 LTS
# www.blender.org
o CrateChris.001
v -0.128571 0.124362 -0.465895
v 0.128571 0.124362 -0.465895
v -0.128571 0.363213 -0.465895
v -0.128571 0.124362 0.465895
v 0.128571 0.363213 -0.465895
v 0.128571 0.124362 0.465895
v -0.314863 0.554209 -0.485848
v 0.314863 0.554209 -0.485848
v -0.128571 0.363213 0.465895
v 0.128571 0.363213 0.465895
v -0.314863 0.554209 0.485848
v 0.301932 0.462357 -0.465895
v 0.314863 0.554209 0.485848
v -0.301932 0.462357 -0.465895
v 0.301932 0.462357 0.465895
v -0.301932 0.462357 0.465895
v -0.068660 0.531260 0.362728
v 0.068660 0.531260 0.362728
v -0.262894 0.554209 0.341266
v -0.301932 0.462357 0.366447
v 0.262894 0.554209 0.341266
v 0.301932 0.462357 0.366447
v 0.314863 0.462357 0.382142
v -0.314863 0.462357 0.382142
v 0.314863 0.554209 0.382142
v 0.262894 0.531260 0.433879
v 0.262894 0.531260 0.341266
v -0.314863 0.554209 0.382142
v -0.262894 0.531260 0.433879
v -0.262894 0.531260 0.341266
v -0.068660 0.531260 -0.362728
v 0.068660 0.531260 -0.362728
v -0.262894 0.554209 -0.341266
v -0.301932 0.462357 -0.366447
v 0.262894 0.554209 -0.341266
v 0.301932 0.462357 -0.366447
v 0.314863 0.462357 -0.382142
v -0.314863 0.462357 -0.382142
v 0.314863 0.554209 -0.382142
v 0.262894 0.531260 -0.433880
v 0.262894 0.531260 -0.341266
v -0.314863 0.554209 -0.382142
v 0.068660 0.487835 0.412418
v 0.068660 0.509653 0.362728
v -0.262894 0.531260 -0.433880
v -0.262894 0.531260 -0.341266
v 0.068660 0.487835 -0.412418
v -0.068660 0.487835 0.412418
v -0.068660 0.509653 0.362728
v 0.068660 0.509653 -0.362728
v 0.262894 0.554209 0.433879
v -0.068660 0.487835 -0.412418
v -0.068660 0.509653 -0.362728
v 0.262894 0.554209 -0.433880
v -0.262894 0.554209 0.433879
v -0.262894 0.554209 -0.433880
v -0.068660 0.531260 -0.412418
v -0.262894 0.531260 -0.268552
v -0.250513 0.012538 -0.381204
v 0.068660 0.531260 -0.412418
v -0.068660 0.531260 0.412418
v -0.262894 0.531260 0.268552
v -0.250513 0.012538 0.381204
v 0.262894 0.531260 -0.268552
v 0.250513 0.012538 -0.381204
v 0.068660 0.531260 0.412418
v 0.262894 0.531260 0.268552
v 0.250513 0.012538 0.381204
v 0.314863 0.462357 -0.485848
v 0.101580 0.336221 -0.422850
v -0.314863 0.462357 -0.485848
v -0.101580 0.336221 -0.422850
v 0.101580 0.151353 -0.422850
v -0.101580 0.151353 -0.422850
v 0.314863 0.462357 0.485848
v 0.101580 0.336221 0.422850
v -0.314863 0.462357 0.485848
v -0.101580 0.336221 0.422850
v 0.101580 0.151353 0.422850
v -0.177825 0.054509 -0.308515
v -0.301932 0.025217 -0.366447
v -0.101580 0.151353 0.422850
v 0.177825 0.054509 -0.308515
v 0.301932 0.025217 -0.366447
v -0.301932 0.025217 -0.465895
v -0.235757 0.025217 -0.465895
v 0.301932 0.025217 -0.465895
v -0.287175 0.012538 -0.381204
v -0.177825 0.054509 0.308515
v -0.301932 0.025217 0.366447
v 0.177825 0.054509 0.308515
v 0.301932 0.025217 0.366447
v 0.235757 0.025217 -0.465895
v 0.287175 0.012538 -0.381204
v -0.287175 0.012538 -0.451138
v -0.250513 0.012538 -0.451138
v -0.235757 0.025217 -0.366447
v -0.301932 0.025217 0.465895
v -0.235757 0.025217 0.465895
v 0.287175 0.012538 -0.451138
v 0.301932 0.025217 0.465895
v -0.287175 0.012538 0.381204
v 0.235757 0.025217 0.465895
v 0.287175 0.012538 0.381204
v 0.250513 0.012538 -0.451138
v 0.235757 0.025217 -0.366447
v 0.128571 0.124362 -0.422850
v -0.128571 0.124362 -0.422850
v -0.128571 0.363213 -0.422850
v 0.128571 0.363213 -0.422850
v -0.287175 0.012538 0.451138
v -0.250513 0.012538 0.451138
v -0.235757 0.025217 0.366447
v 0.287175 0.012538 0.451138
v 0.250513 0.012538 0.451138
v 0.235757 0.025217 0.366447
v 0.128571 0.124362 0.422850
v -0.128571 0.124362 0.422850
v -0.128571 0.363213 0.422850
v 0.128571 0.363213 0.422850
v 0.072754 0.177419 0.447293
v -0.072754 0.177419 0.447293
v -0.072754 0.246022 0.447293
v 0.072754 0.246022 0.447293
v 0.072754 0.177419 -0.447293
v -0.072754 0.177419 -0.447293
v -0.072754 0.246021 -0.447293
v 0.072754 0.246021 -0.447293
v -0.101580 0.151353 -0.447293
v -0.101580 0.336221 -0.447293
v 0.101580 0.151353 -0.447293
v 0.101580 0.336221 -0.447293
v -0.101580 0.151353 0.447293
v -0.101580 0.336221 0.447293
v 0.101580 0.151353 0.447293
v 0.101580 0.336221 0.447293
v 0.072754 0.177419 -0.429554
v 0.072754 0.246021 -0.429554
v -0.072754 0.177419 -0.429554
v 0.072754 0.177419 0.429554
v 0.072754 0.246022 0.429554
v -0.072754 0.177419 0.429554
v -0.072754 0.246022 0.429554
v -0.072754 0.246021 -0.429554
vn 0.1770 -0.9682 -0.1770
vn -0.1770 -0.9682 -0.1770
vn -0.0000 -0.9869 -0.1615
vn -0.0000 -1.0000 -0.0000
vn -0.0000 -0.0000 1.0000
vn -0.0000 1.0000 -0.0000
vn 1.0000 -0.0000 -0.0000
vn -0.0000 -0.0000 -1.0000
vn 0.1615 -0.9869 -0.0000
vn 0.1770 -0.9682 0.1770
vn -1.0000 -0.0000 -0.0000
vn 0.6517 -0.7585 -0.0000
vn -0.0000 -0.0000 -0.0000
vn -0.0000 -0.7585 0.6517
vn -0.6517 -0.7585 -0.0000
vn -0.1615 -0.9869 -0.0000
vn -0.1770 -0.9682 0.1770
vn -0.0000 -0.7585 -0.6517
vn -0.0000 -0.9869 0.1615
vn -0.0000 0.9156 0.4020
vn -0.0000 0.9156 -0.4020
vt 0.376048 0.516471
vt 0.486396 0.515301
vt 0.507056 0.535982
vt 0.355413 0.536907
vt 0.375436 0.037555
vt 0.375436 0.266245
vt 0.371401 0.271142
vt 0.371401 0.032658
vt 0.338969 0.568672
vt 0.338969 0.546850
vt 0.350408 0.546850
vt 0.350408 0.568672
vt 0.240416 0.647281
vt 0.248839 0.655703
vt 0.174308 0.655703
vt 0.182731 0.647281
vt 0.354590 0.045413
vt 0.370806 0.032658
vt 0.370806 0.271142
vt 0.354590 0.258388
vt 0.581925 0.309834
vt 0.568494 0.309834
vt 0.568494 0.229596
vt 0.581925 0.229596
vt 0.165957 0.698936
vt 0.029554 0.698936
vt 0.029554 0.667905
vt 0.165957 0.667905
vt 0.375436 0.297276
vt 0.563864 0.297276
vt 0.567899 0.303502
vt 0.371401 0.303502
vt 0.135021 0.613810
vt 0.165957 0.647256
vt 0.565728 0.512172
vt 0.565728 0.555021
vt 0.552178 0.555021
vt 0.552178 0.512172
vt 0.166552 0.705908
vt 0.173713 0.705908
vt 0.173713 0.869973
vt 0.166552 0.869973
vt 0.355801 0.304902
vt 0.376039 0.325506
vt 0.558986 0.496667
vt 0.558986 0.453818
vt 0.565728 0.453818
vt 0.565728 0.496667
vt 0.190524 0.045413
vt 0.174308 0.032658
vt 0.174308 0.000298
vt 0.190524 0.016514
vt 0.567899 0.032658
vt 0.563864 0.037555
vt 0.563864 0.006524
vt 0.567899 0.000297
vt 0.552178 0.555616
vt 0.563618 0.555616
vt 0.563618 0.577437
vt 0.552178 0.577437
vt 0.568494 0.581380
vt 0.582044 0.581380
vt 0.582044 0.624229
vt 0.568494 0.624229
vt 0.028959 0.500000
vt 0.000298 0.500000
vt 0.000297 0.303502
vt 0.028959 0.303502
vt 0.581925 0.074828
vt 0.568494 0.074828
vt 0.568494 0.000297
vt 0.581925 0.000297
vt 0.173713 0.435135
vt 0.173713 0.464034
vt 0.166552 0.464034
vt 0.166552 0.435135
vt 0.029554 0.219756
vt 0.165957 0.219756
vt 0.165957 0.448446
vt 0.029554 0.448446
vt 0.567899 0.271142
vt 0.563864 0.266245
vt 0.338969 0.367491
vt 0.338969 0.304098
vt 0.346596 0.304098
vt 0.346596 0.367491
vt 0.528984 0.537502
vt 0.528984 0.617740
vt 0.520562 0.609318
vt 0.520562 0.545924
vt 0.347191 0.425176
vt 0.347191 0.367491
vt 0.354818 0.367491
vt 0.354818 0.425176
vt 0.028959 0.803205
vt 0.028959 0.999703
vt 0.000298 0.999703
vt 0.000298 0.803205
vt 0.338374 0.523282
vt 0.174308 0.523282
vt 0.174308 0.355686
vt 0.338374 0.355686
vt 0.234917 0.552668
vt 0.174308 0.545972
vt 0.558308 0.416311
vt 0.563844 0.416311
vt 0.563844 0.437718
vt 0.558308 0.437718
vt 0.234917 0.326300
vt 0.277765 0.326300
vt 0.370806 0.000298
vt 0.354590 0.016514
vt 0.190525 0.016514
vt 0.174308 0.000297
vt 0.462876 0.545924
vt 0.454454 0.537502
vt 0.173713 0.486723
vt 0.173713 0.654320
vt 0.166552 0.677009
vt 0.173713 0.051886
vt 0.173713 0.219482
vt 0.166552 0.242171
vt 0.166552 0.029196
vt 0.370806 0.303503
vt 0.354590 0.287287
vt 0.029554 0.479477
vt 0.060490 0.533572
vt 0.060490 0.613810
vt 0.029554 0.188725
vt 0.029554 0.000297
vt 0.060490 0.054392
vt 0.060490 0.134630
vt 0.173713 0.677009
vt 0.547114 0.606513
vt 0.547490 0.585826
vt 0.553368 0.579504
vt 0.553368 0.612504
vt 0.173713 0.000297
vt 0.173713 0.029196
vt 0.166552 0.000298
vt 0.565728 0.438313
vt 0.552178 0.438313
vt 0.508075 0.304098
vt 0.508075 0.535452
vt 0.507651 0.510807
vt 0.507691 0.328743
vt 0.257567 0.584460
vt 0.257567 0.629864
vt 0.249434 0.638859
vt 0.249434 0.575465
vt 0.174308 0.575465
vt 0.182731 0.583888
vt 0.453359 0.537708
vt 0.438257 0.554315
vt 0.374514 0.554315
vt 0.355412 0.537708
vt 0.165957 0.500126
vt 0.135021 0.533572
vt 0.574720 0.502891
vt 0.568494 0.506926
vt 0.568494 0.310429
vt 0.574720 0.314464
vt 0.557713 0.325504
vt 0.557713 0.370908
vt 0.552178 0.370908
vt 0.552178 0.325504
vt 0.575236 0.565875
vt 0.568494 0.565875
vt 0.568494 0.523026
vt 0.575236 0.523026
vt 0.348815 0.602143
vt 0.354693 0.608464
vt 0.331501 0.608588
vt 0.337755 0.602598
vt 0.174308 0.332996
vt 0.278974 0.629864
vt 0.307119 0.638859
vt 0.165957 0.188725
vt 0.135021 0.134630
vt 0.536431 0.585372
vt 0.536054 0.606059
vt 0.530176 0.612381
vt 0.530176 0.579381
vt 0.509095 0.328743
vt 0.509055 0.510807
vt 0.508670 0.535452
vt 0.508670 0.304098
vt 0.338374 0.332996
vt 0.581925 0.155066
vt 0.568494 0.155066
vt 0.234917 0.310794
vt 0.174308 0.304098
vt 0.338374 0.304098
vt 0.277765 0.310795
vt 0.557713 0.392314
vt 0.552178 0.392314
vt 0.165957 0.479477
vt 0.621459 0.284549
vt 0.621835 0.263861
vt 0.627713 0.257540
vt 0.627713 0.290539
vt 0.568494 0.507521
vt 0.582044 0.507521
vt 0.234917 0.568174
vt 0.277765 0.568174
vt 0.338374 0.574870
vt 0.174308 0.574870
vt 0.610400 0.284095
vt 0.604522 0.290416
vt 0.331501 0.575588
vt 0.337379 0.581910
vt 0.551583 0.578786
vt 0.530176 0.578786
vt 0.530176 0.533383
vt 0.551583 0.533383
vt 0.507056 0.304098
vt 0.486850 0.324459
vt 0.240416 0.583888
vt 0.248839 0.575465
vt 0.277765 0.552668
vt 0.338374 0.545972
vt 0.135021 0.054392
vt 0.165957 0.000297
vt 0.558308 0.304098
vt 0.563844 0.304098
vt 0.563844 0.349501
vt 0.558308 0.349501
vt 0.028959 0.770845
vt 0.000298 0.770845
vt 0.000298 0.532360
vt 0.028959 0.532360
vt 0.313969 0.602598
vt 0.307714 0.608588
vt 0.307714 0.575589
vt 0.313592 0.581910
vt 0.557713 0.437718
vt 0.552178 0.437718
vt 0.600854 0.506926
vt 0.605751 0.502891
vt 0.610776 0.263407
vt 0.604522 0.257417
vt 0.173713 0.242171
vt 0.000297 0.032658
vt 0.000297 0.000298
vt 0.028959 0.000298
vt 0.028959 0.032658
vt 0.453859 0.640931
vt 0.355413 0.640931
vt 0.370549 0.624009
vt 0.438257 0.624009
vt 0.530339 0.304098
vt 0.530339 0.532788
vt 0.509690 0.532788
vt 0.509690 0.304098
vt 0.338969 0.488569
vt 0.346596 0.488569
vt 0.346596 0.546255
vt 0.338969 0.546255
vt 0.190524 0.258388
vt 0.174308 0.271142
vt 0.000297 0.271142
vt 0.028959 0.271142
vt 0.278974 0.584460
vt 0.307119 0.575465
vt 0.565403 0.579381
vt 0.565403 0.601203
vt 0.553963 0.601203
vt 0.553963 0.579381
vt 0.165957 0.168076
vt 0.165957 0.020946
vt 0.551583 0.304098
vt 0.551583 0.532788
vt 0.530934 0.532788
vt 0.530934 0.304098
vt 0.348438 0.581456
vt 0.354693 0.575465
vt 0.165957 0.927626
vt 0.029554 0.927626
vt 0.354818 0.488570
vt 0.347191 0.488570
vt 0.346596 0.425176
vt 0.338969 0.425176
vt 0.248839 0.655703
vt 0.240416 0.647281
vt 0.557713 0.304098
vt 0.552178 0.304098
vt 0.563844 0.370908
vt 0.558308 0.370908
vt 0.462876 0.609318
vt 0.454454 0.617740
vt 0.325028 0.602143
vt 0.330906 0.608465
vt 0.347191 0.304098
vt 0.354818 0.304098
vt 0.354818 0.546255
vt 0.347191 0.546255
vt 0.173713 0.271070
vt 0.166552 0.271070
vt 0.165957 0.958658
vt 0.029554 0.958658
vt 0.462876 0.545924
vt 0.454454 0.537502
vt 0.594079 0.616230
vt 0.582639 0.616230
vt 0.582639 0.594408
vt 0.594079 0.594408
vt 0.582639 0.550370
vt 0.582639 0.507521
vt 0.599573 0.507521
vt 0.599573 0.550370
vt 0.606346 0.457558
vt 0.606346 0.310429
vt 0.637377 0.310429
vt 0.637377 0.457558
vt 0.330906 0.575465
vt 0.324651 0.581456
vt 0.599573 0.593813
vt 0.582639 0.593813
vt 0.582639 0.550965
vt 0.599573 0.550965
vt 0.637377 0.605283
vt 0.606346 0.605283
vt 0.606346 0.458153
vt 0.637377 0.458153
vt 0.603927 0.257417
vt 0.603927 0.302820
vt 0.582520 0.302820
vt 0.582520 0.257417
vt 0.190524 0.287286
vt 0.174308 0.303503
vt 0.582520 0.193429
vt 0.610666 0.202424
vt 0.610666 0.247827
vt 0.582520 0.256822
vt 0.640206 0.193429
vt 0.632072 0.202424
vt 0.640206 0.256822
vt 0.632072 0.247827
vt 0.693496 0.000297
vt 0.693496 0.192834
vt 0.582520 0.192834
vt 0.582520 0.000297
s 1
f 89/1/1 91/2/2 116/3/3 113/4/3
s 2
f 34/5/4 20/6/4 24/7/4 38/8/4
s 3
f 88/9/4 95/10/4 96/11/4 59/12/4
s 4
f 79/13/5 117/14/5 120/15/5 76/16/5
s 5
f 33/17/6 42/18/6 28/19/6 19/20/6
s 6
f 1/21/6 108/22/6 107/23/6 2/24/6
s 7
f 92/25/7 22/26/7 15/27/7 101/28/7
s 2
f 16/29/4 15/30/4 75/31/4 77/32/4
s 8
f 6/33/5 103/34/5 101/28/5
s 9
f 61/35/8 66/36/8 43/37/8 48/38/8
s 10
f 56/39/5 45/40/5 40/41/5 54/42/5
s 1
f 97/43/9 80/44/10 89/1/1 113/4/9
s 11
f 49/45/5 44/46/5 18/47/5 17/48/5
s 5
f 35/49/6 39/50/6 8/51/6 54/52/6
s 2
f 37/53/4 36/54/4 12/55/4 69/56/4
s 12
f 102/57/4 63/58/4 112/59/4 111/60/4
s 13
f 57/61/5 52/62/5 47/63/5 60/64/5
s 14
f 11/65/5 77/66/5 75/67/5 13/68/5
s 15
f 3/69/7 109/70/7 108/71/7 1/72/7
s 16
f 29/73/7 30/74/7 19/75/7 55/76/7
s 17
f 34/77/11 81/78/11 90/79/11 20/80/11
s 2
f 36/54/4 37/53/4 23/81/4 22/82/4
s 18
f 82/83/4 79/84/4 135/85/4 133/86/4
s 19
f 109/87/8 110/88/8 70/89/8 72/90/8
s 20
f 61/35/7 48/38/7 49/45/7 17/48/7
s 21
f 70/91/7 73/92/7 131/93/7 132/94/7
s 22
f 7/95/8 8/96/8 69/97/8 71/98/8
s 23
f 64/99/6 58/100/6 62/101/6 67/102/6
f 31/103/6 46/104/6 58/100/6
s 24
f 127/105/7 144/106/7 139/107/7 126/108/7
s 23
f 17/109/6 18/110/6 67/102/6 62/101/6
s 5
f 7/111/6 56/112/6 54/113/6 8/114/6
s 19
f 74/115/8 108/116/8 109/87/8 72/90/8
s 16
f 30/74/7 62/117/7 19/75/7
f 58/118/7 33/119/7 19/75/7 62/117/7
s 25
f 64/120/11 67/121/11 21/122/11 35/123/11
s 5
f 19/20/6 28/19/6 11/124/6 55/125/6
s 8
f 16/126/5 9/127/5 10/128/5 15/27/5
s 26
f 14/129/8 12/130/8 5/131/8 3/132/8
s 16
f 45/40/7 56/39/7 33/119/7 46/133/7
f 46/133/7 33/119/7 58/118/7
s 27
f 112/134/12 63/135/12 113/136/12 99/137/12
s 25
f 40/138/11 41/139/11 35/123/11 54/140/11
s 28
f 66/141/11 18/47/11 44/46/11 43/142/11
s 29
f 46/143/13 30/144/13 62/145/13 58/146/13
s 30
f 126/147/8 125/148/8 131/149/8 129/150/8
s 4
f 119/151/5 78/152/5 76/16/5 120/15/5
s 31
f 10/153/11 120/154/11 117/155/11 6/156/11
s 8
f 99/157/5 103/34/5 6/33/5 4/158/5
s 2
f 14/159/4 71/160/4 69/161/4 12/162/4
s 32
f 124/163/4 123/164/4 143/165/4 141/166/4
s 33
f 53/167/8 31/168/8 32/169/8 50/170/8
s 34
f 114/171/14 101/172/14 103/173/14 115/174/14
s 23
f 17/109/6 62/101/6 30/175/6
s 30
f 128/176/8 132/177/8 131/149/8 125/148/8
s 17
f 81/78/11 34/77/11 14/129/11 85/178/11
s 26
f 1/179/8 85/178/8 14/129/8 3/132/8
s 35
f 102/180/15 111/181/15 98/182/15 90/183/15
s 36
f 64/184/13 67/185/13 27/186/13 41/187/13
s 23
f 18/110/6 27/188/6 67/102/6
s 37
f 5/189/11 2/24/11 107/23/11 110/190/11
s 23
f 61/191/6 29/192/6 26/193/6 66/194/6
s 38
f 123/164/7 122/195/7 142/196/7 143/165/7
s 8
f 4/158/5 98/197/5 99/157/5
s 39
f 94/198/12 100/199/12 87/200/12 84/201/12
s 40
f 60/202/11 47/203/11 50/170/11 32/169/11
s 23
f 57/204/6 60/205/6 40/206/6 45/207/6
s 41
f 65/208/14 94/198/14 84/201/14 106/209/14
s 23
f 17/109/6 30/175/6 29/192/6 61/191/6
s 42
f 115/174/15 103/173/15 116/210/15 68/211/15
s 43
f 139/212/8 144/213/8 138/214/8 137/215/8
s 1
f 106/216/16 116/3/16 91/2/2 83/217/17
s 4
f 82/218/5 78/152/5 119/151/5 118/219/5
s 8
f 4/158/5 9/127/5 16/126/5 98/197/5
s 23
f 32/220/6 64/99/6 41/221/6
s 5
f 33/17/6 56/112/6 7/111/6 42/18/6
s 26
f 2/222/8 5/131/8 12/130/8 87/223/8
s 44
f 126/224/6 139/225/6 137/226/6 125/227/6
s 45
f 42/228/11 38/229/11 24/230/11 28/231/11
s 25
f 41/139/11 64/120/11 35/123/11
s 46
f 88/232/15 81/233/15 85/234/15 95/235/15
s 47
f 122/195/6 121/236/6 140/237/6 142/196/6
s 2
f 38/238/4 71/160/4 14/159/4 34/239/4
s 48
f 105/240/15 65/208/15 106/209/15 93/241/15
s 25
f 27/242/11 21/122/11 67/121/11
s 49
f 111/181/14 112/134/14 99/137/14 98/182/14
s 50
f 100/199/18 105/240/18 93/241/18 87/200/18
s 51
f 37/243/7 69/244/7 8/245/7 39/246/7
s 52
f 9/247/7 4/248/7 118/249/7 119/250/7
s 1
f 84/251/4 92/252/4 116/253/16 106/254/16
s 53
f 76/255/7 136/256/7 135/257/7 79/258/7
s 5
f 35/49/6 21/259/6 25/260/6 39/50/6
s 51
f 23/261/7 25/262/7 13/68/7 75/67/7
s 30
f 127/263/8 126/147/8 129/150/8 130/264/8
s 54
f 104/265/4 114/266/4 115/267/4 68/268/4
s 26
f 86/269/8 1/179/8 2/222/8 93/270/8
s 1
f 97/271/9 113/272/9 90/273/4 81/274/4
s 8
f 6/33/5 101/28/5 15/27/5 10/128/5
s 23
f 31/103/6 57/204/6 45/207/6 46/104/6
s 55
f 63/135/18 102/180/18 90/183/18 113/136/18
s 56
f 104/275/12 92/276/12 101/172/12 114/171/12
s 45
f 38/229/11 42/228/11 7/95/11 71/98/11
s 26
f 2/222/8 87/223/8 93/270/8
s 7
f 84/277/7 36/278/7 22/26/7 92/25/7
s 57
f 130/279/6 72/280/6 70/91/6 132/94/6
s 58
f 134/281/6 136/256/6 76/255/6 78/282/6
s 4
f 82/218/5 118/219/5 117/283/5 79/284/5
s 59
f 121/285/11 124/163/11 141/166/11 140/286/11
s 60
f 125/227/11 137/226/11 138/287/11 128/288/11
s 61
f 57/61/7 31/168/7 53/167/7 52/62/7
s 30
f 130/264/8 132/177/8 128/176/8 127/263/8
s 23
f 31/103/6 58/100/6 64/99/6 32/220/6
s 19
f 73/289/8 70/89/8 110/88/8 107/290/8
s 62
f 59/291/14 97/292/14 81/233/14 88/232/14
s 63
f 78/282/11 82/83/11 133/86/11 134/281/11
s 1
f 80/44/10 97/43/19 106/216/19 83/217/17
s 64
f 74/293/4 129/294/4 131/93/4 73/92/4
s 65
f 72/280/11 130/279/11 129/295/11 74/296/11
s 25
f 26/297/11 51/298/11 21/122/11 27/242/11
s 7
f 84/277/7 87/299/7 12/300/7 36/278/7
s 45
f 24/230/11 77/66/11 11/65/11 28/231/11
s 19
f 74/301/8 73/289/8 107/290/8 108/302/8
s 66
f 94/303/4 65/304/4 105/305/4 100/306/4
s 67
f 48/307/20 43/308/20 44/309/20 49/310/20
s 2
f 24/7/4 20/6/4 16/29/4 77/32/4
s 17
f 90/79/11 98/197/11 16/126/11 20/80/11
s 68
f 128/288/4 138/287/4 144/106/4 127/105/4
s 69
f 119/250/4 120/154/4 10/153/4 9/247/4
s 1
f 113/311/3 116/312/3 103/313/4 99/314/4
s 51
f 39/246/7 25/262/7 23/261/7 37/243/7
s 23
f 18/110/6 66/194/6 26/193/6 27/188/6
s 70
f 95/235/18 85/234/18 86/315/18 96/316/18
s 26
f 1/179/8 86/269/8 85/178/8
s 71
f 52/317/21 53/318/21 50/319/21 47/320/21
s 1
f 97/321/19 86/322/4 93/323/4 106/324/19
s 23
f 32/220/6 41/221/6 40/206/6 60/205/6
s 72
f 96/316/12 86/315/12 97/292/12 59/291/12
s 73
f 109/70/4 3/69/4 5/189/4 110/190/4
s 74
f 142/325/5 140/326/5 141/327/5 143/328/5
s 5
f 21/259/6 51/329/6 13/330/6 25/260/6
s 2
f 23/81/4 75/31/4 15/30/4 22/82/4
s 75
f 68/211/18 116/210/18 92/276/18 104/275/18
s 76
f 4/248/6 6/156/6 117/155/6 118/249/6
s 5
f 11/124/6 13/330/6 51/329/6 55/125/6
s 77
f 55/76/8 51/298/8 26/297/8 29/73/8
s 78
f 134/331/5 123/332/5 124/333/5 136/334/5
f 123/332/5 134/331/5 133/335/5 122/336/5
f 122/336/5 133/335/5 135/337/5 121/338/5
f 124/333/5 121/338/5 135/337/5 136/334/5
s 1
f 83/339/17 91/340/2 89/341/1 80/342/10
